<?xml version="1.0" encoding="UTF-8"?><svg id="_レイヤー_2" xmlns="http://www.w3.org/2000/svg" viewBox="0 0 174.37 27"><defs><style>.cls-1{fill:#221714;}.cls-2{fill:#e60012;}</style></defs><g id="_参考画像"><g><g><polygon class="cls-1" points="7.95 36.63 9.96 36.63 9.96 44.85 14.61 44.85 14.61 46.52 7.95 46.52 7.95 36.63"/><path class="cls-1" d="M15.52,43.01c0-2.1,1.43-3.74,3.5-3.74,2.28,0,3.5,1.74,3.5,4.28h-5.15c.14,1.09,.75,1.77,1.81,1.77,.74,0,1.16-.33,1.37-.87h1.85c-.26,1.26-1.38,2.33-3.21,2.33-2.36,0-3.68-1.65-3.68-3.77m1.88-.76h3.15c-.05-.9-.65-1.52-1.5-1.52-1,0-1.48,.6-1.65,1.52"/><path class="cls-1" d="M23.63,39.47h.98v-2.22h1.84v2.22h1.22v1.25h-1.22v3.76c0,.53,.29,.71,.7,.71,.23,0,.56-.01,.56-.01v1.38s-.43,.03-1.18,.03c-.91,0-1.92-.36-1.92-1.7v-4.16h-.98v-1.25Z"/><path class="cls-1" d="M32.83,39.47h.98v-2.22h1.84v2.22h1.22v1.25h-1.22v3.76c0,.53,.29,.71,.7,.71,.23,0,.56-.01,.56-.01v1.38s-.43,.03-1.18,.03c-.91,0-1.92-.36-1.92-1.7v-4.16h-.98v-1.25Z"/><path class="cls-1" d="M40.7,40.4h.04c.51-.75,1.09-1.12,2.06-1.12,1.46,0,2.45,1.11,2.45,2.66v4.63h-1.88v-4.36c0-.76-.44-1.3-1.23-1.3-.83,0-1.44,.66-1.44,1.63v4.02h-1.88v-9.89h1.88v3.72Z"/><path class="cls-1" d="M46.72,43.01c0-2.1,1.43-3.74,3.5-3.74,2.28,0,3.5,1.74,3.5,4.28h-5.15c.14,1.09,.75,1.77,1.81,1.77,.74,0,1.16-.33,1.37-.87h1.85c-.26,1.26-1.38,2.33-3.21,2.33-2.36,0-3.68-1.65-3.68-3.77m1.88-.76h3.15c-.05-.9-.65-1.52-1.5-1.52-1,0-1.48,.6-1.65,1.52"/><path class="cls-1" d="M65.7,45.24h-.03c-.68,1.13-1.6,1.54-2.78,1.54-1.5,0-2.66-.54-3.47-1.44-.82-.92-1.29-2.19-1.29-3.68,0-1.64,.58-3.08,1.62-4.04,.8-.74,1.85-1.13,3.18-1.13,2.49,0,3.91,1.37,4.23,3.31h-1.97c-.22-.95-.95-1.65-2.23-1.65-1.87,0-2.8,1.55-2.8,3.52s1.06,3.5,2.77,3.5c1.54,0,2.55-1.15,2.55-2.24v-.06h-2.38v-1.55h4.16v5.26h-1.51l-.07-1.33Z"/><path class="cls-1" d="M68.75,43.03c0-2.12,1.51-3.75,3.71-3.75s3.71,1.63,3.71,3.75-1.51,3.75-3.71,3.75-3.71-1.63-3.71-3.75m5.51,0c0-1.39-.65-2.32-1.8-2.32s-1.8,.94-1.8,2.32,.64,2.31,1.8,2.31,1.8-.92,1.8-2.31"/><path class="cls-1" d="M77.35,43.03c0-2.12,1.51-3.75,3.71-3.75s3.71,1.63,3.71,3.75-1.51,3.75-3.71,3.75-3.71-1.63-3.71-3.75m5.51,0c0-1.39-.65-2.32-1.8-2.32s-1.8,.94-1.8,2.32,.64,2.31,1.8,2.31,1.8-.92,1.8-2.31"/><path class="cls-1" d="M85.97,43.03c0-2.22,1.26-3.75,3.03-3.75,.99,0,1.62,.46,2.01,1.05h.04v-3.65h1.88v9.9h-1.81v-.93h-.03c-.42,.68-1.12,1.13-2.12,1.13-1.78,0-3-1.45-3-3.75m5.12,.04c0-1.36-.44-2.27-1.65-2.27-1.04,0-1.56,.91-1.56,2.23s.54,2.17,1.51,2.17c1.12,0,1.7-.83,1.7-2.13"/><polygon class="cls-1" points="97.22 36.68 105.17 36.68 105.17 38.37 102.2 38.37 102.2 46.57 100.2 46.57 100.2 38.37 97.22 38.37 97.22 36.68"/><path class="cls-1" d="M106.6,36.68h1.88v1.69h-1.88v-1.69Zm0,2.79h1.88v7.1h-1.88v-7.1Z"/><path class="cls-1" d="M110.68,39.47h1.81v.95h.04c.39-.65,1.08-1.15,2.06-1.15,.9,0,1.62,.5,1.96,1.25h.03c.49-.78,1.23-1.25,2.13-1.25,1.49,0,2.34,.97,2.34,2.52v4.78h-1.88v-4.46c0-.8-.4-1.22-1.09-1.22-.79,0-1.27,.61-1.27,1.55v4.12h-1.88v-4.46c0-.8-.4-1.22-1.09-1.22-.76,0-1.27,.61-1.27,1.55v4.12h-1.88v-7.1Z"/><path class="cls-1" d="M122.56,43.01c0-2.1,1.43-3.74,3.5-3.74,2.28,0,3.5,1.74,3.5,4.28h-5.15c.14,1.09,.75,1.77,1.81,1.77,.74,0,1.16-.33,1.37-.87h1.85c-.26,1.26-1.38,2.33-3.21,2.33-2.36,0-3.68-1.65-3.68-3.77m1.88-.76h3.15c-.05-.9-.65-1.52-1.5-1.52-1,0-1.48,.6-1.65,1.52"/><path class="cls-1" d="M130.86,44.27h1.74c.12,.82,.71,1.18,1.55,1.18s1.3-.32,1.3-.81c0-.68-.9-.75-1.87-.94-1.27-.25-2.52-.6-2.52-2.15s1.27-2.27,2.89-2.27c1.87,0,2.91,.92,3.04,2.35h-1.7c-.08-.76-.57-1.04-1.37-1.04-.73,0-1.22,.28-1.22,.79,0,.61,.94,.66,1.95,.87,1.19,.25,2.5,.58,2.5,2.24,0,1.43-1.22,2.28-2.99,2.28-2.06,0-3.21-.99-3.32-2.5"/><path class="cls-1" d="M145.87,42.75h-1.63v3.82h-2.08v-9.89h4.35c1.15,0,2.01,.33,2.59,.92,.55,.57,.89,1.26,.89,2.15,0,1.38-.72,2.35-1.97,2.77l2.48,4.05h-2.32l-2.3-3.82Zm-1.63-1.63h2.08c1.05,0,1.6-.49,1.6-1.36s-.58-1.34-1.57-1.34h-2.1v2.7Z"/><path class="cls-1" d="M151.28,43.03c0-2.12,1.51-3.75,3.71-3.75s3.71,1.63,3.71,3.75-1.51,3.75-3.71,3.75-3.71-1.63-3.71-3.75m5.51,0c0-1.39-.65-2.32-1.8-2.32s-1.8,.94-1.8,2.32,.64,2.31,1.8,2.31,1.8-.92,1.8-2.31"/><rect class="cls-1" x="160.43" y="36.68" width="1.88" height="9.89"/><rect class="cls-1" x="164.54" y="36.68" width="1.88" height="9.89"/></g><g><polygon class="cls-2" points="46.11 7.41 54.19 7.41 56.95 16.48 59.8 7.41 66.56 7.41 69.16 16.48 72.17 7.41 79.82 7.41 73.88 26.73 66.3 26.73 63.25 17.27 60.65 26.73 52.78 26.73 46.11 7.41"/><path class="cls-2" d="M100.45,19.98h7.11s-.04,2.91,3.04,2.91c2.47,0,2.39-1.45,2.39-1.45,0,0,.08-1.49-2.64-1.93-3.05-.46-9.53-1.01-9.53-6.41,0,0-.58-6.61,9.39-6.61,7.07,0,9.46,3.1,9.46,6.73h-6.77c-.14-1.05-1.02-2.14-2.5-2.14s-2.32,.54-2.32,1.23c0,.9,.58,1.26,4.71,1.81,4.75,.98,7.47,2.18,7.47,7.07s-5.11,6.48-9.71,6.48-10.08-1.53-10.08-7.69"/><path class="cls-2" d="M128.81,14.03h-7.08s-1.51-7.81,10.39-7.81c0,0,8.82-.51,9.29,6.34,.47,6.85-.48,11.51,1.56,14.17h-7.59s-.69-.91-1.05-1.78c0,0-2.03,2.39-6.38,2.39s-6.8-2.54-6.8-5.8,1.9-5.66,7.96-6.75c2.42-.43,4.6-.72,4.71-2.07,.11-1.34-1.74-1.6-2.21-1.6,0,0-2.77-.2-2.8,2.88m.77,5.42c-1.67,.73-.83,1.99-.83,1.99,0,0,.83,1.38,2.83,.87,2.87-.76,2.65-4.57,2.65-4.57,0,0-2.97,.98-4.64,1.7"/><rect class="cls-2" x="166.59" y="0" width="7.79" height="5.44"/><rect class="cls-2" x="166.59" y="7.41" width="7.79" height="19.33"/><polygon class="cls-2" points="151.39 26.74 143.6 26.74 143.6 0 151.39 0 151.39 12 155.35 7.4 164.52 7.4 157.74 14.62 165.66 26.73 156.67 26.73 152.39 20.22 151.39 21.3 151.39 26.74"/><polygon class="cls-2" points="0 0 8.12 0 8.12 8.15 16.24 0 26.39 0 16.03 10.66 27.16 26.74 16.6 26.74 10.22 16.66 8.11 18.83 8.11 26.74 0 26.74 0 0"/><path class="cls-2" d="M33.87,14.03h-7.08s-1.5-7.81,10.39-7.81c0,0,8.82-.51,9.3,6.34,.47,6.85-.48,11.51,1.55,14.17h-7.58s-.69-.91-1.05-1.78c0,0-2.03,2.39-6.38,2.39s-6.8-2.54-6.8-5.8,1.89-5.66,7.95-6.75c2.43-.43,4.61-.72,4.72-2.07,.11-1.34-1.74-1.6-2.21-1.6,0,0-2.77-.2-2.8,2.88m.77,5.42c-1.67,.73-.83,1.99-.83,1.99,0,0,.83,1.38,2.83,.87,2.87-.76,2.65-4.57,2.65-4.57,0,0-2.98,.98-4.64,1.7"/><path class="cls-2" d="M86.59,14.03h-7.08s-1.51-7.81,10.39-7.81c0,0,8.82-.51,9.29,6.34,.47,6.85-.48,11.51,1.56,14.17h-7.58s-.69-.91-1.05-1.78c0,0-2.03,2.39-6.38,2.39s-6.8-2.54-6.8-5.8,1.89-5.66,7.96-6.75c2.43-.43,4.6-.72,4.71-2.07,.11-1.34-1.74-1.6-2.21-1.6,0,0-2.77-.2-2.8,2.88m.77,5.42c-1.66,.73-.83,1.99-.83,1.99,0,0,.83,1.38,2.83,.87,2.87-.76,2.65-4.57,2.65-4.57,0,0-2.97,.98-4.64,1.7"/></g></g></g></svg>