<svg id="Layer_1" data-name="Layer 1" xmlns="http://www.w3.org/2000/svg" viewBox="0 0 1302.09 324.68"><defs><style>.cls-1{fill:#d70000;}.cls-2{fill:#1c131c;}.cls-3{fill:#fff;}</style></defs><rect class="cls-1" width="620.57" height="324.68"/><rect class="cls-2" x="608" width="694.09" height="324.68"/><path class="cls-3" d="M69,252.27,72.1,71.94h34.07l25.6,124.9,26.72-124.9h32.95l3.34,180.33H170.29l-2.68-125.34L142,252.27H122.2l-26-125.79L93.7,252.27Z" transform="translate(0 0)"/><path class="cls-3" d="M270.47,254.72q-19.14,0-30.5-7.12a39.35,39.35,0,0,1-16.25-20.49q-4.91-13.35-4.9-31.61V128q0-18.25,4.9-31.28A38.38,38.38,0,0,1,240,76.83q11.35-6.89,30.5-6.9,19.59,0,30.84,6.9a39.16,39.16,0,0,1,16.25,19.93q5,13,5,31.28v67.68q0,18-5,31.28a40.76,40.76,0,0,1-16.25,20.49Q290.06,254.72,270.47,254.72Zm0-24.27q8.23,0,12.14-3.56a18,18,0,0,0,5.23-9.79,65,65,0,0,0,1.33-13.58V120.47a63,63,0,0,0-1.33-13.58,17.22,17.22,0,0,0-5.23-9.46Q278.71,94,270.47,94q-7.79,0-11.8,3.45a16.87,16.87,0,0,0-5.34,9.46A62.92,62.92,0,0,0,252,120.47v83.05a70.3,70.3,0,0,0,1.23,13.58,17,17,0,0,0,5.23,9.79Q262.46,230.46,270.47,230.45Z" transform="translate(0 0)"/><path class="cls-3" d="M363.53,252.27V96.2H334.81V71.94h89.95V96.2H396.48V252.27Z" transform="translate(0 0)"/><path class="cls-3" d="M488.88,254.72q-19.15,0-30.51-7.12a39.44,39.44,0,0,1-16.25-20.49q-4.89-13.35-4.9-31.61V128q0-18.25,4.9-31.28a38.48,38.48,0,0,1,16.25-19.93q11.36-6.89,30.51-6.9,19.59,0,30.83,6.9A39.16,39.16,0,0,1,536,96.76q5,13,5,31.28v67.68q0,18-5,31.28a40.76,40.76,0,0,1-16.25,20.49Q508.46,254.72,488.88,254.72Zm0-24.27q8.24,0,12.13-3.56a17.89,17.89,0,0,0,5.23-9.79,64.93,64.93,0,0,0,1.34-13.58V120.47a62.92,62.92,0,0,0-1.34-13.58A17.16,17.16,0,0,0,501,97.43Q497.11,94,488.88,94q-7.8,0-11.8,3.45a16.83,16.83,0,0,0-5.35,9.46,63,63,0,0,0-1.33,13.58v83.05a70.33,70.33,0,0,0,1.22,13.58,17.05,17.05,0,0,0,5.23,9.79C479.53,229.27,483.53,230.45,488.88,230.45Z" transform="translate(0 0)"/><path class="cls-3" d="M673.44,252.27V71.94h44.3a97.41,97.41,0,0,1,21.71,2.22,44.28,44.28,0,0,1,16.7,7.46A33.68,33.68,0,0,1,767,95.76q3.78,8.91,3.78,22.49a51.89,51.89,0,0,1-3,18.7,28.22,28.22,0,0,1-8.79,12.35,32,32,0,0,1-14.47,6.13q10.68,1.78,17.7,7.45a34.24,34.24,0,0,1,10.46,14.81q3.45,9.13,3.45,22a74,74,0,0,1-3.22,22.82A42.11,42.11,0,0,1,763.27,239a40.05,40.05,0,0,1-15.81,9.9,66.46,66.46,0,0,1-22.15,3.34Zm32.95-106.64h11.13q9.79,0,15.14-2.89a15.64,15.64,0,0,0,7.46-8.91,46.2,46.2,0,0,0,2.11-15.14q0-9.57-3.23-14.8a16.26,16.26,0,0,0-9.68-7.13,60,60,0,0,0-16.48-1.89h-6.45Zm0,83.49h12.47q14.91,0,20.26-7.24t5.34-22.37q0-10.9-2.56-17.7a18.82,18.82,0,0,0-8.46-10.13q-5.91-3.35-15.7-3.34H706.39Z" transform="translate(0 0)"/><path class="cls-3" d="M797.44,252.27V71.94h43.2q18.25,0,30.83,4.34a35.42,35.42,0,0,1,19.15,14.8q6.55,10.47,6.57,28.5a87.16,87.16,0,0,1-2,19.59A37.22,37.22,0,0,1,888.39,154a30.69,30.69,0,0,1-13.24,9.46l25.15,88.83H867.35l-21.82-82.6H830.4v82.6Zm33-103.3h10.24q9.57,0,15.25-2.78a16.28,16.28,0,0,0,8.12-8.91q2.46-6.12,2.45-15.7,0-13.58-5-20.37t-19-6.79h-12Z" transform="translate(0 0)"/><path class="cls-3" d="M922.34,252.27V71.94H998V95.09H955.29V147h33.62V169.9H955.29v59.66h43.19v22.71Z" transform="translate(0 0)"/><path class="cls-3" d="M1017.63,252.27V71.94h44.3a97.35,97.35,0,0,1,21.71,2.22,44.28,44.28,0,0,1,16.7,7.46,33.68,33.68,0,0,1,10.8,14.14q3.78,8.91,3.78,22.49a52.12,52.12,0,0,1-3,18.7,28.32,28.32,0,0,1-8.8,12.35,32,32,0,0,1-14.47,6.13q10.69,1.78,17.7,7.45a34.16,34.16,0,0,1,10.46,14.81q3.45,9.13,3.46,22a73.69,73.69,0,0,1-3.23,22.82,42.11,42.11,0,0,1-9.58,16.48,40.08,40.08,0,0,1-15.8,9.9,66.52,66.52,0,0,1-22.16,3.34Zm32.95-106.64h11.13q9.8,0,15.14-2.89a15.64,15.64,0,0,0,7.46-8.91,46.2,46.2,0,0,0,2.11-15.14q0-9.57-3.22-14.8a16.31,16.31,0,0,0-9.69-7.13A59.88,59.88,0,0,0,1057,94.87h-6.46Zm0,83.49h12.47q14.91,0,20.26-7.24t5.34-22.37q0-10.9-2.56-17.7a18.82,18.82,0,0,0-8.46-10.13q-5.89-3.35-15.7-3.34h-11.35Z" transform="translate(0 0)"/><path class="cls-3" d="M1191.06,254.72q-20,0-31.17-7.35a37.54,37.54,0,0,1-15.36-20.92q-4.23-13.57-4.23-32.51v-122h32.06V197.73a108.33,108.33,0,0,0,1.11,15.92,22.35,22.35,0,0,0,5.24,12q4.11,4.56,12.35,4.56,8.68,0,12.58-4.56a24.13,24.13,0,0,0,5.12-12,99.09,99.09,0,0,0,1.23-15.92V71.94h31.83v122q0,18.93-4.23,32.51t-15.25,20.92Q1211.32,254.72,1191.06,254.72Z" transform="translate(0 0)"/><polygon class="cls-2" points="608 69.94 565.51 162.34 608 254.72 608 69.94"/></svg>