<svg id="Layer_1" data-name="Layer 1" xmlns="http://www.w3.org/2000/svg" viewBox="0 0 1565.88 906.65"><defs><style>.cls-1{fill:#fff;}</style></defs><path d="M939.72,866a25.88,25.88,0,0,1-25.85-25.85v-68a25.89,25.89,0,0,1,25.85-25.86h392a25.88,25.88,0,0,1,25.85,25.86V866Z" transform="translate(64.06 0)"/><path d="M1331.72,746.76a25.38,25.38,0,0,1,25.35,25.36v93.35H939.72a25.38,25.38,0,0,1-25.35-25.35v-68a25.38,25.38,0,0,1,25.35-25.36h392m0-1h-392a26.36,26.36,0,0,0-26.35,26.36v68a26.35,26.35,0,0,0,26.35,26.35h418.35V772.12a26.35,26.35,0,0,0-26.35-26.36Z" transform="translate(64.06 0)"/><path d="M4.21,582.21V454.91a65.25,65.25,0,0,1,65.17-65.18H1501.32c-.28,106.18-86.74,192.48-193,192.48Z" transform="translate(64.06 0)"/><path d="M1500.81,390.24a192.32,192.32,0,0,1-192.46,191.47H4.71V454.91a64.74,64.74,0,0,1,64.67-64.67H1500.81m1-1H69.38A65.67,65.67,0,0,0,3.71,454.91v127.8H1308.35c106.85,0,193.47-86.62,193.47-193.47Z" transform="translate(64.06 0)"/><path class="cls-1" d="M864.88,906.65H67.59A131.65,131.65,0,0,1-64.06,775V523.41H886.41a131.65,131.65,0,0,1,131.65,131.65v98.41A153.18,153.18,0,0,1,864.88,906.65Z" transform="translate(64.06 0)"/><path d="M137.12,866C63.83,866,4.21,806.35,4.21,733.06S63.83,600.15,137.12,600.15H795.71c73.28,0,132.91,59.62,132.91,132.91S869,866,795.71,866Z" transform="translate(64.06 0)"/><path d="M795.71,600.65a132.41,132.41,0,1,1,0,264.82H137.12a132.41,132.41,0,1,1,0-264.82H795.71m0-1H137.12A133.41,133.41,0,0,0,3.71,733.06h0A133.41,133.41,0,0,0,137.12,866.47H795.71A133.41,133.41,0,0,0,929.12,733.06h0A133.41,133.41,0,0,0,795.71,599.65Z" transform="translate(64.06 0)"/><path d="M1303.27,787.19a23.81,23.81,0,0,1,5.86-33.16l89.7-62.74a62.65,62.65,0,0,1,87.24,15.43A57.14,57.14,0,0,1,1472,786.19l-113.79,79.58Z" transform="translate(64.06 0)"/><path d="M1434.68,679.48v1a62.26,62.26,0,0,1,51,26.53,56.64,56.64,0,0,1-13.94,78.78l-113.37,79.29-54.67-78.17a23.3,23.3,0,0,1,5.74-32.47l89.7-62.74a61.79,61.79,0,0,1,35.56-11.22v-1m0,0a62.87,62.87,0,0,0-36.13,11.4l-89.7,62.74a24.31,24.31,0,0,0-6,33.86l55.24,79,114.19-79.86a57.57,57.57,0,0,0,14.19-80.17h0a63.07,63.07,0,0,0-51.8-27Z" transform="translate(64.06 0)"/><path d="M640.08,388.73,795.56,206.47a89.36,89.36,0,0,1,68.09-31.42c.94,0,1.89,0,2.84,0L1296,188.73a44.81,44.81,0,0,1,31.12,14.11l173.51,185.89Z" transform="translate(64.06 0)"/><path d="M863.65,175.55c.94,0,1.89,0,2.82,0L1296,189.23a44.27,44.27,0,0,1,30.77,14l172.73,185.06H641.17L795.94,206.79a88.88,88.88,0,0,1,67.71-31.24m0-1a90,90,0,0,0-68.47,31.6L639,389.24h862.82L1327.53,202.5a45,45,0,0,0-31.47-14.27L866.51,174.6c-1,0-1.91,0-2.86,0Z" transform="translate(64.06 0)"/><rect x="1097.51" y="-9.74" width="76.43" height="274.29" transform="translate(278.89 804.22) rotate(-42.71)"/><path d="M1070.74,1.43l185.39,200.8-55.42,51.17L1015.32,52.59l55.42-51.16m0-1.41L1013.9,52.54l186.75,202.27,56.89-52.52L1070.79,0Z" transform="translate(64.06 0)"/><path d="M903.61,59.11a17.23,17.23,0,0,1-17.2-17.21V17.19A16.71,16.71,0,0,1,903.1.5h167.22V59.11Z" transform="translate(64.06 0)"/><path d="M1069.82,1V58.61H903.61a16.72,16.72,0,0,1-16.7-16.7V17.19A16.2,16.2,0,0,1,903.1,1h166.72m1-1H903.1a17.19,17.19,0,0,0-17.19,17.19V41.91a17.7,17.7,0,0,0,17.7,17.7h167.21V0Z" transform="translate(64.06 0)"/><polygon class="cls-1" points="114.53 527.76 64.06 527.76 64.06 477.29 114.53 527.76"/></svg>